<?xml version="1.0" encoding="UTF-8"?>
<svg id="Layer_1" data-name="Layer 1" xmlns="http://www.w3.org/2000/svg" viewBox="0 0 118.74 53.93">
  <defs>
    <style>
      .cls-1 {
        stroke-width: 0px;
      }
    </style>
  </defs>
  <path class="cls-1" d="m25.76,25.24c-.11.26-.28.62-.5,1.1-.82,1.77-1.42,3.22-1.8,4.37-.53-1.37-.98-2.51-1.35-3.44-.38-.93-.66-1.6-.84-2L9.46,0,0,41.73h5.99l4.29-19.71c.24-1.01.41-1.97.53-2.89s.19-1.8.21-2.64c.24.82.51,1.65.83,2.49.32.84.7,1.71,1.14,2.6l9.72,20.21h1.51l9.71-19.77c.46-.95.84-1.88,1.14-2.79.3-.91.53-1.83.69-2.74.11.77.24,1.74.39,2.9.16,1.41.28,2.26.35,2.57l4.43,19.77h6.05L37.3,0l-11.54,25.24Z"/>
  <path class="cls-1" d="m68.86,30.41c0,2.52-.52,4.32-1.56,5.41s-2.73,1.64-5.06,1.64-4.02-.55-5.06-1.64-1.56-2.9-1.56-5.41v-14.6h-5.93v12.82c0,5,.99,8.6,2.98,10.83,1.99,2.22,5.2,3.34,9.62,3.34s7.53-1.12,9.52-3.36c1.99-2.24,2.98-5.84,2.98-10.8v-12.82h-5.93v14.6Z"/>
  <path class="cls-1" d="m99.47,20.05c-.69-1.66-1.79-2.93-3.29-3.81-1.5-.88-3.31-1.33-5.43-1.33-3.46,0-6.27,1.27-8.42,3.81-2.15,2.54-3.23,5.88-3.23,10.02,0,4.36,1.05,7.79,3.16,10.29,2.11,2.51,4.99,3.76,8.65,3.76,1.82,0,3.44-.36,4.85-1.09,1.41-.73,2.65-1.84,3.71-3.34v3.36h5.93V15.81h-5.93v4.24Zm-1.85,15.04c-1.34,1.62-3.08,2.43-5.21,2.43-2.26,0-4.01-.75-5.25-2.24-1.24-1.49-1.86-3.62-1.86-6.37s.64-4.87,1.93-6.41c1.29-1.54,3.05-2.31,5.29-2.31s3.99.75,5.24,2.24c1.25,1.5,1.87,3.58,1.87,6.26s-.67,4.78-2.01,6.4Z"/>
  <path class="cls-1" d="m115.04,8.34c1.04,0,1.91-.36,2.62-1.08.71-.72,1.07-1.61,1.07-2.67s-.35-1.94-1.05-2.64c-.7-.7-1.58-1.05-2.64-1.05s-1.9.36-2.64,1.09c-.74.73-1.11,1.6-1.11,2.6s.37,1.9,1.11,2.64,1.62,1.11,2.64,1.11Z"/>
  <polygon class="cls-1" points="112.09 47.98 106.25 47.98 106.25 53.92 112.09 53.92 112.09 53.93 118.03 53.93 118.03 15.81 112.09 15.81 112.09 47.98"/>
</svg>